<svg enable-background="new 0 0 370.3 218" viewBox="0 0 370.3 218" xmlns="http://www.w3.org/2000/svg"><path d="m190.6 147.1c-3.1 2.4-8.1 2.4-11.2 0l-44-33.8c-3.1-2.4-3.1-6.3 0-8.7l44-34.7c3.1-2.4 8-2.4 11.1 0l44 34.7c3.1 2.4 3 6.3 0 8.7zm170.9-82.3c3.1-2.4 4.3-6.4 2.8-9s-5.7-3.5-9.3-2l-59.3 23.6c-3.6 1.4-7-.5-7.5-4.4l-8.9-63.4c-.5-3.8-3.4-7-6.4-7s-5.9 3.1-6.4 7l-9 63.4c-.5 3.8-3.9 5.8-7.5 4.4l-58.4-23.3c-3.6-1.4-9.5-1.4-13.1 0l-58.4 23.3c-3.6 1.4-7-.5-7.5-4.4l-8.9-63.4c-.5-3.8-3.4-7-6.4-7s-5.9 3.1-6.4 7l-9.1 63.4c-.5 3.8-3.9 5.8-7.5 4.4l-59.4-23.6c-3.6-1.4-7.8-.5-9.3 2s-.2 6.6 2.8 9l50 39.2c3.1 2.4 3.1 6.3 0 8.7l-49.9 39.2c-3.1 2.4-4.3 6.7-2.8 9.5s5.7 4 9.3 2.5l58.8-23.6c3.6-1.4 7 .5 7.5 4.4l8.5 63.9c.5 3.9 3.9 7 7.5 7s7-3.2 7.5-7l8.5-63.9c.5-3.9 3.9-5.8 7.5-4.4l57.8 23.2c3.6 1.4 9.5 1.4 13.1 0l57.8-23.2c3.6-1.4 7 .5 7.5 4.4l8.5 63.9c.5 3.9 3.9 7 7.5 7s7-3.2 7.5-7l8.5-63.9c.5-3.9 3.9-5.8 7.5-4.4l58.8 23.6c3.6 1.4 7.8.3 9.3-2.5s.2-7.1-2.8-9.5l-49.9-39.2c-3.1-2.4-3.1-6.3 0-8.7z" fill=""/></svg>