<svg id="Layer_1" data-name="Layer 1" xmlns="http://www.w3.org/2000/svg" viewBox="0 0 299.24 272.07"><defs><style>.cls-1{fill:#34c6f4;}</style></defs><title>finalwebring</title><path class="cls-1" d="M227,244.74a98.66,98.66,0,0,0,16.85-21.66h0a99.43,99.43,0,0,0,0-99.29L172.75.68l-24.25,14L185,77.93a98.75,98.75,0,0,0-27.18-3.76v0a99.44,99.44,0,0,0-86,49.65L.76,246.91l24.25,14,36.52-63.25a98.58,98.58,0,0,0,10.33,25.42h0A98.62,98.62,0,0,0,107,258.7c.61.36,1.22.72,1.84,1.07l.29.17a98.74,98.74,0,0,0,48.73,12.8H300v-28Zm-33.47-133a70.9,70.9,0,0,1,26.71,27.23l.23.43a71.74,71.74,0,0,1,8.67,32.5c0,.47,0,.94,0,1.42s0,1.18,0,1.77a71.92,71.92,0,0,1-8.66,32.47l-.24.45a71.16,71.16,0,0,1-63.63,36.74H156A71.87,71.87,0,0,1,123.6,236c-.52-.28-1-.58-1.53-.88s-.83-.47-1.24-.72A71.8,71.8,0,0,1,97,210.61c-.09-.13-.17-.27-.25-.41a71.17,71.17,0,0,1,0-73.51c.09-.14.18-.28.26-.42a71.93,71.93,0,0,1,23.8-23.74l1.42-.82c.45-.26.89-.53,1.35-.78a71.74,71.74,0,0,1,32.46-8.74h.5A70.84,70.84,0,0,1,193.49,111.7Z" transform="translate(-0.76 -0.68)"/></svg>