<svg id="Layer_1" data-name="Layer 1" xmlns="http://www.w3.org/2000/svg" viewBox="0 0 309.89 282.71"><defs><style>.cls-1{fill:#34c6f4;stroke:#34c6f4;stroke-miterlimit:10;stroke-width:9px;}</style></defs><title>finalfinalwebring</title><path class="cls-1" d="M232.24,250.23a98.6,98.6,0,0,0,16.85-21.66h0a99.42,99.42,0,0,0,0-99.29L178,6.17l-24.25,14,36.5,63.25a98.36,98.36,0,0,0-27.18-3.76h0a99.41,99.41,0,0,0-86,49.65L6,252.4l24.25,14,36.52-63.25A98.62,98.62,0,0,0,77.1,228.57h0a98.74,98.74,0,0,0,35.14,35.62c.61.36,1.22.72,1.84,1.07l.29.17a98.91,98.91,0,0,0,48.73,12.8H305.24v-28Zm-33.47-133a70.86,70.86,0,0,1,26.71,27.23l.23.43a71.74,71.74,0,0,1,8.67,32.5v3.19a71.92,71.92,0,0,1-8.66,32.47l-.24.45a71.19,71.19,0,0,1-63.63,36.74h-.61a71.92,71.92,0,0,1-32.4-8.75c-.52-.28-1-.58-1.53-.88s-.83-.47-1.24-.72a71.89,71.89,0,0,1-23.83-23.79c-.09-.13-.17-.27-.25-.41a71.19,71.19,0,0,1,0-73.51c.09-.14.18-.28.26-.42A71.83,71.83,0,0,1,126.05,118l1.42-.82c.45-.26.89-.53,1.35-.78a71.65,71.65,0,0,1,32.46-8.74h.5a70.85,70.85,0,0,1,36.95,9.51Z" transform="translate(0.15 -0.02)"/></svg>